<?xml version="1.0" encoding="utf-8"?>
<!-- Generator: Adobe Illustrator 16.0.0, SVG Export Plug-In . SVG Version: 6.00 Build 0)  -->
<!DOCTYPE svg PUBLIC "-//W3C//DTD SVG 1.1//EN" "http://www.w3.org/Graphics/SVG/1.1/DTD/svg11.dtd">
<svg version="1.1" id="Layer_1" xmlns="http://www.w3.org/2000/svg" xmlns:xlink="http://www.w3.org/1999/xlink" x="0px" y="0px"
	 width="269.342px" height="44.707px" viewBox="0 0 269.342 44.707" enable-background="new 0 0 269.342 44.707"
	 xml:space="preserve">
<path fill-rule="evenodd" clip-rule="evenodd" fill="#707091" d="M55.932,30.605C46.003,22.074,28.206,9.463,16.881,3.65
	C13.521,3.703,3.359,3.661,0,3.715c19.315,10.443,47.895,31.604,59.241,40.992C55.71,40.188,55.244,33.969,55.932,30.605z"/>
<path fill-rule="evenodd" clip-rule="evenodd" fill="#575778" d="M17.719,1.566c10.411,5.826,30.113,18.942,38.689,27.183
	c1.26-3.604,4.879-7.376,7.017-8.2C57.518,14.647,45.256,5.557,37.672,1.672C30.177,0.919,24.352,0.979,17.719,1.566z"/>
<path fill-rule="evenodd" clip-rule="evenodd" fill="#454566" d="M86.839,14.16C83.367,8.9,66.935,2.17,60.763,1.886
	c0.04,4.156,6.22,7.956,11.186,8.546c-4.785,0.224-10.662-1.97-12.545-6.748C53.796,1.737,45.602,0.127,38.844,0
	C45.885,3.423,59.95,13.727,65.66,20.068c1.204-0.269,3.989-0.457,7.004,0.219c-7.004-0.219-12.537,4.534-14.383,9.833
	c4.691-1.456,8.518,3.13,9.231,6.717c3.423-0.019,11.572-3.399,12.587-4.574c-5.026,1.75-14.154-2.878-5.303-6.642
	c2.672-1.135,6.888-0.689,9.15,0.463c3.695,1.88-0.326,4.976-0.313,4.967c2.563,0.047,9.24-4.029,10.032-7.171
	c-2.078-3.503-4.088-5.473-6.559-8.517C87.013,14.983,86.997,14.756,86.839,14.16z M82.577,18.348
	c-2.013,0.686-3.41-0.863-2.795-2.114l-0.928-1.687c2.173,1.723,5.219,4.164,7.07,5.633L82.577,18.348z"/>
<g>
	<path fill="#454566" d="M117.878,16.475c0-0.461,0.161-0.852,0.484-1.176c0.323-0.322,0.714-0.483,1.176-0.483h20.711
		c0.646,0,1.251,0.121,1.815,0.362c0.564,0.242,1.061,0.571,1.486,0.986c0.427,0.414,0.762,0.898,1.003,1.452
		c0.242,0.554,0.363,1.153,0.363,1.798c0,0.646-0.121,1.244-0.363,1.798c-0.241,0.554-0.576,1.038-1.003,1.452
		c-0.426,0.415-0.922,0.744-1.486,0.986c-0.564,0.241-1.17,0.362-1.815,0.362h-17.98c-0.3,0.046-0.553,0.185-0.761,0.415
		s-0.311,0.519-0.311,0.864v2.939c0,0.461-0.167,0.853-0.501,1.175c-0.334,0.324-0.721,0.484-1.158,0.484
		c-0.461,0-0.853-0.16-1.176-0.484c-0.323-0.322-0.484-0.714-0.484-1.175v-3.319c0-0.576,0.104-1.124,0.311-1.643
		s0.501-0.969,0.882-1.349s0.818-0.68,1.314-0.899c0.495-0.219,1.042-0.328,1.642-0.328h18.36c0.347,0,0.652-0.121,0.917-0.363
		s0.397-0.547,0.397-0.916c0-0.346-0.133-0.645-0.397-0.898s-0.57-0.381-0.917-0.381h-20.849c-0.461,0-0.853-0.161-1.176-0.484
		C118.039,17.328,117.878,16.937,117.878,16.475z"/>
	<path fill="#454566" d="M173.62,15.299c0.323-0.322,0.715-0.483,1.176-0.483s0.854,0.161,1.176,0.483
		c0.322,0.324,0.484,0.715,0.484,1.176v10.062c0,0.945-0.317,1.74-0.951,2.386s-1.424,0.968-2.368,0.968
		c-0.323,0-0.64-0.045-0.951-0.139c-0.312-0.092-0.594-0.219-0.847-0.38l-15.836-9.681c-0.439-0.254-0.802-0.455-1.09-0.605
		c-0.289-0.15-0.524-0.225-0.709-0.225c-0.346,0-0.564,0.219-0.656,0.656c-0.093,0.438-0.139,1.072-0.139,1.902v6.812
		c0,0.461-0.162,0.853-0.484,1.175c-0.322,0.324-0.715,0.484-1.176,0.484s-0.853-0.16-1.176-0.484
		c-0.322-0.322-0.483-0.714-0.483-1.175V18.17c0-0.945,0.316-1.74,0.95-2.387c0.635-0.645,1.424-0.968,2.369-0.968
		c0.322,0,0.64,0.046,0.951,0.138c0.311,0.093,0.593,0.22,0.847,0.381l15.837,9.682c0.438,0.254,0.801,0.455,1.088,0.605
		c0.289,0.15,0.525,0.225,0.709,0.225c0.346,0,0.564-0.219,0.658-0.657c0.092-0.438,0.138-1.071,0.138-1.901v-6.812
		C173.136,16.014,173.297,15.623,173.62,15.299z"/>
	<path fill="#454566" d="M206.538,15.299c0.322,0.324,0.484,0.715,0.484,1.176c0,0.462-0.162,0.854-0.484,1.176
		c-0.322,0.323-0.715,0.484-1.176,0.484h-10.234v10.097c0,0.461-0.162,0.853-0.484,1.175c-0.322,0.324-0.715,0.484-1.176,0.484
		s-0.853-0.16-1.176-0.484c-0.322-0.322-0.483-0.714-0.483-1.175V18.135h-10.374c-0.414-0.046-0.771-0.225-1.071-0.536
		s-0.449-0.686-0.449-1.124c0-0.461,0.161-0.852,0.483-1.176c0.323-0.322,0.715-0.483,1.176-0.483h23.789
		C205.823,14.815,206.215,14.977,206.538,15.299z"/>
	<path fill="#454566" d="M237.069,29.406c-0.323,0.324-0.715,0.484-1.176,0.484s-0.854-0.16-1.176-0.484
		c-0.323-0.322-0.484-0.714-0.484-1.175v-4.219h-20.435v4.219c0,0.461-0.161,0.853-0.484,1.175
		c-0.323,0.324-0.714,0.484-1.175,0.484c-0.462,0-0.854-0.16-1.176-0.484c-0.324-0.322-0.484-0.714-0.484-1.175V16.475
		c0-0.461,0.16-0.852,0.484-1.176c0.322-0.322,0.714-0.483,1.176-0.483c0.461,0,0.852,0.161,1.175,0.483
		c0.323,0.324,0.484,0.715,0.484,1.176v4.219h20.435v-4.219c0-0.461,0.161-0.852,0.484-1.176c0.322-0.322,0.715-0.483,1.176-0.483
		s0.853,0.161,1.176,0.483c0.322,0.324,0.484,0.715,0.484,1.176v11.757C237.553,28.692,237.391,29.084,237.069,29.406z"/>
	<path fill="#454566" d="M266.438,25.275c0.645,0.449,1.301,0.939,1.971,1.469c0.253,0.186,0.472,0.398,0.656,0.641
		c0.185,0.241,0.277,0.523,0.277,0.847c0,0.461-0.162,0.853-0.484,1.175c-0.323,0.324-0.715,0.484-1.176,0.484
		c-0.393,0-0.784-0.16-1.176-0.484c-0.945-0.691-1.914-1.359-2.904-2.005c-0.991-0.646-2.023-1.222-3.095-1.729
		c-1.071-0.506-2.185-0.91-3.337-1.209c-1.152-0.3-2.352-0.45-3.596-0.45h-6.881c-0.3,0.046-0.553,0.185-0.761,0.415
		s-0.312,0.519-0.312,0.864v2.939c0,0.461-0.167,0.853-0.501,1.175c-0.335,0.324-0.721,0.484-1.158,0.484
		c-0.462,0-0.853-0.16-1.176-0.484c-0.323-0.322-0.483-0.714-0.483-1.175v-3.319c0-0.576,0.108-1.124,0.328-1.643
		c0.219-0.519,0.512-0.969,0.881-1.349s0.807-0.68,1.314-0.899c0.507-0.219,1.061-0.328,1.66-0.328h18.325
		c0.347,0,0.651-0.121,0.917-0.363c0.264-0.242,0.396-0.547,0.396-0.916c0-0.346-0.133-0.645-0.396-0.898
		c-0.266-0.254-0.57-0.381-0.917-0.381h-20.85c-0.462,0-0.853-0.161-1.176-0.484c-0.323-0.322-0.483-0.714-0.483-1.176
		c0-0.461,0.16-0.852,0.483-1.176c0.323-0.322,0.714-0.483,1.176-0.483h20.712c0.645,0,1.25,0.121,1.814,0.362
		c0.564,0.242,1.061,0.571,1.487,0.986c0.427,0.414,0.761,0.898,1.003,1.452s0.363,1.153,0.363,1.798
		c0,0.646-0.121,1.244-0.363,1.798s-0.576,1.038-1.003,1.452c-0.427,0.415-0.923,0.744-1.487,0.986
		c-0.564,0.241-1.17,0.362-1.814,0.362h-0.139C265.159,24.405,265.792,24.825,266.438,25.275z"/>
</g>
</svg>
